<?xml version="1.0" encoding="UTF-8"?>
<svg width="385px" height="231px" viewBox="0 0 385 231" version="1.1" xmlns="http://www.w3.org/2000/svg" xmlns:xlink="http://www.w3.org/1999/xlink">
    <!-- Generator: Sketch 49 (51002) - http://www.bohemiancoding.com/sketch -->
    <title>Radio</title>
    <desc>Created with Sketch.</desc>
    <defs>
        <polygon id="path-1" points="0 233 387 233 387 0 0 0"></polygon>
    </defs>
    <g id="Old" stroke="none" stroke-width="1" fill="none" fill-rule="evenodd">
        <g id="Store" transform="translate(-88.000000, -899.000000)">
            <g id="Radio" transform="translate(87.000000, 898.000000)">
                <path d="M75,200 L77.7817352,228.063148 C77.7817352,228.063148 80.0630137,230.258408 82.9981735,229.974691 C85.9369863,230.258408 88.2164384,228.063148 88.2164384,228.063148 L91,200 L75,200 Z" id="Fill-1" fill="#A87B4F"></path>
                <path d="M75,200 L77.7817352,228.063148 C77.7817352,228.063148 80.0630137,230.258408 82.9981735,229.974691 C85.9369863,230.258408 88.2164384,228.063148 88.2164384,228.063148 L91,200 L75,200 Z" id="Stroke-3" stroke="#231F20" stroke-width="3"></path>
                <path d="M294,200 L296.781735,228.063148 C296.781735,228.063148 299.063014,230.258408 302,229.974691 C304.936986,230.258408 307.216438,228.063148 307.216438,228.063148 L310,200 L294,200 Z" id="Fill-5" fill="#A87B4F"></path>
                <path d="M294,200 L296.781735,228.063148 C296.781735,228.063148 299.063014,230.258408 302,229.974691 C304.936986,230.258408 307.216438,228.063148 307.216438,228.063148 L310,200 L294,200 Z" id="Stroke-7" stroke="#231F20" stroke-width="3"></path>
                <mask id="mask-2" fill="white">
                    <use xlink:href="#path-1"></use>
                </mask>
                <g id="Clip-10"></g>
                <polygon id="Fill-9" fill="#FFEDBE" mask="url(#mask-2)" points="3 204 384 204 384 3 3 3"></polygon>
                <polygon id="Stroke-11" stroke="#231F20" stroke-width="3" stroke-linejoin="round" mask="url(#mask-2)" points="3 204 384 204 384 3 3 3"></polygon>
                <path d="M354,106.475066 C354,91.4591278 341.687935,79.2857713 326.499102,79.2857713 C315.561632,77.0507914 299,88.6591848 299,88.6591848 C299,88.6591848 299.614525,92.0631765 300.737561,97.0323647 C299.632494,99.9779901 299,103.149245 299,106.475066 C299,116.075886 304.043778,124.497035 311.644484,129.334753 C313.68751,132.79382 315.915613,135.195802 318.287464,135.696807 C323.334836,136.759222 329.393838,134.872458 334.545428,132.477583 C338.81476,131.187761 342.636675,128.89593 345.745238,125.881017 C345.752426,125.875687 345.788363,125.850814 345.788363,125.850814 L345.788363,125.843708 C350.853703,120.911828 354,114.05943 354,106.475066" id="Fill-12" fill="#939597" mask="url(#mask-2)"></path>
                <path d="M354,106.475066 C354,91.4591278 341.687935,79.2857713 326.499102,79.2857713 C315.561632,77.0507914 299,88.6591848 299,88.6591848 C299,88.6591848 299.614525,92.0631765 300.737561,97.0323647 C299.632494,99.9779901 299,103.149245 299,106.475066 C299,116.075886 304.043778,124.497035 311.644484,129.334753 C313.68751,132.79382 315.915613,135.195802 318.287464,135.696807 C323.334836,136.759222 329.393838,134.872458 334.545428,132.477583 C338.81476,131.187761 342.636675,128.89593 345.745238,125.881017 C345.752426,125.875687 345.788363,125.850814 345.788363,125.850814 L345.788363,125.843708 C350.853703,120.911828 354,114.05943 354,106.475066 Z" id="Stroke-13" stroke="#231F20" stroke-width="4" mask="url(#mask-2)"></path>
                <path d="M139,36.0008254 C139,37.1052414 138.105241,38 136.999175,38 C135.894759,38 135,37.1052414 135,36.0008254 C135,34.8964094 135.894759,34 136.999175,34 C138.105241,34 139,34.8964094 139,36.0008254" id="Fill-14" fill="#404042" mask="url(#mask-2)"></path>
                <path d="M139,36.0008254 C139,37.1052414 138.105241,38 136.999175,38 C135.894759,38 135,37.1052414 135,36.0008254 C135,34.8964094 135.894759,34 136.999175,34 C138.105241,34 139,34.8964094 139,36.0008254 Z" id="Stroke-15" stroke="#231F20" mask="url(#mask-2)"></path>
                <path d="M122,36.0008254 C122,37.1052414 121.105241,38 119.999175,38 C118.894759,38 118,37.1052414 118,36.0008254 C118,34.8964094 118.894759,34 119.999175,34 C121.105241,34 122,34.8964094 122,36.0008254" id="Fill-16" fill="#404042" mask="url(#mask-2)"></path>
                <path d="M122,36.0008254 C122,37.1052414 121.105241,38 119.999175,38 C118.894759,38 118,37.1052414 118,36.0008254 C118,34.8964094 118.894759,34 119.999175,34 C121.105241,34 122,34.8964094 122,36.0008254 Z" id="Stroke-17" stroke="#231F20" mask="url(#mask-2)"></path>
                <path d="M156,36.0008254 C156,37.1052414 155.105241,38 153.999175,38 C152.894759,38 152,37.1052414 152,36.0008254 C152,34.8964094 152.894759,34 153.999175,34 C155.105241,34 156,34.8964094 156,36.0008254" id="Fill-18" fill="#404042" mask="url(#mask-2)"></path>
                <path d="M156,36.0008254 C156,37.1052414 155.105241,38 153.999175,38 C152.894759,38 152,37.1052414 152,36.0008254 C152,34.8964094 152.894759,34 153.999175,34 C155.105241,34 156,34.8964094 156,36.0008254 Z" id="Stroke-19" stroke="#231F20" mask="url(#mask-2)"></path>
                <path d="M174,36.0008254 C174,37.1052414 173.105241,38 172.000825,38 C170.896409,38 170,37.1052414 170,36.0008254 C170,34.8964094 170.896409,34 172.000825,34 C173.105241,34 174,34.8964094 174,36.0008254" id="Fill-20" fill="#404042" mask="url(#mask-2)"></path>
                <path d="M174,36.0008254 C174,37.1052414 173.105241,38 172.000825,38 C170.896409,38 170,37.1052414 170,36.0008254 C170,34.8964094 170.896409,34 172.000825,34 C173.105241,34 174,34.8964094 174,36.0008254 Z" id="Stroke-21" stroke="#231F20" mask="url(#mask-2)"></path>
                <path d="M191,36.0008254 C191,37.1052414 190.105241,38 189.000825,38 C187.896409,38 187,37.1052414 187,36.0008254 C187,34.8964094 187.896409,34 189.000825,34 C190.105241,34 191,34.8964094 191,36.0008254" id="Fill-22" fill="#404042" mask="url(#mask-2)"></path>
                <path d="M191,36.0008254 C191,37.1052414 190.105241,38 189.000825,38 C187.896409,38 187,37.1052414 187,36.0008254 C187,34.8964094 187.896409,34 189.000825,34 C190.105241,34 191,34.8964094 191,36.0008254 Z" id="Stroke-23" stroke="#231F20" mask="url(#mask-2)"></path>
                <path d="M208,36.0008254 C208,37.1052414 207.105241,38 206.000825,38 C204.896409,38 204,37.1052414 204,36.0008254 C204,34.8964094 204.896409,34 206.000825,34 C207.105241,34 208,34.8964094 208,36.0008254" id="Fill-24" fill="#404042" mask="url(#mask-2)"></path>
                <path d="M208,36.0008254 C208,37.1052414 207.105241,38 206.000825,38 C204.896409,38 204,37.1052414 204,36.0008254 C204,34.8964094 204.896409,34 206.000825,34 C207.105241,34 208,34.8964094 208,36.0008254 Z" id="Stroke-25" stroke="#231F20" mask="url(#mask-2)"></path>
                <path d="M226,36.0008254 C226,37.1052414 225.105241,38 224.000825,38 C222.896409,38 222,37.1052414 222,36.0008254 C222,34.8964094 222.896409,34 224.000825,34 C225.105241,34 226,34.8964094 226,36.0008254" id="Fill-26" fill="#404042" mask="url(#mask-2)"></path>
                <path d="M226,36.0008254 C226,37.1052414 225.105241,38 224.000825,38 C222.896409,38 222,37.1052414 222,36.0008254 C222,34.8964094 222.896409,34 224.000825,34 C225.105241,34 226,34.8964094 226,36.0008254 Z" id="Stroke-27" stroke="#231F20" mask="url(#mask-2)"></path>
                <path d="M243,36.0008254 C243,37.1052414 242.105241,38 241.000825,38 C239.896409,38 239,37.1052414 239,36.0008254 C239,34.8964094 239.896409,34 241.000825,34 C242.105241,34 243,34.8964094 243,36.0008254" id="Fill-28" fill="#404042" mask="url(#mask-2)"></path>
                <path d="M243,36.0008254 C243,37.1052414 242.105241,38 241.000825,38 C239.896409,38 239,37.1052414 239,36.0008254 C239,34.8964094 239.896409,34 241.000825,34 C242.105241,34 243,34.8964094 243,36.0008254 Z" id="Stroke-29" stroke="#231F20" mask="url(#mask-2)"></path>
                <path d="M260,36.0008254 C260,37.1052414 259.105241,38 258.000825,38 C256.896409,38 256,37.1052414 256,36.0008254 C256,34.8964094 256.896409,34 258.000825,34 C259.105241,34 260,34.8964094 260,36.0008254" id="Fill-30" fill="#404042" mask="url(#mask-2)"></path>
                <path d="M260,36.0008254 C260,37.1052414 259.105241,38 258.000825,38 C256.896409,38 256,37.1052414 256,36.0008254 C256,34.8964094 256.896409,34 258.000825,34 C259.105241,34 260,34.8964094 260,36.0008254 Z" id="Stroke-31" stroke="#231F20" mask="url(#mask-2)"></path>
                <path d="M139,54.0008254 C139,55.1052414 138.105241,56 136.999175,56 C135.894759,56 135,55.1052414 135,54.0008254 C135,52.8964094 135.894759,52 136.999175,52 C138.105241,52 139,52.8964094 139,54.0008254" id="Fill-32" fill="#404042" mask="url(#mask-2)"></path>
                <path d="M139,54.0008254 C139,55.1052414 138.105241,56 136.999175,56 C135.894759,56 135,55.1052414 135,54.0008254 C135,52.8964094 135.894759,52 136.999175,52 C138.105241,52 139,52.8964094 139,54.0008254 Z" id="Stroke-33" stroke="#231F20" mask="url(#mask-2)"></path>
                <path d="M122,54.0008254 C122,55.1052414 121.105241,56 119.999175,56 C118.894759,56 118,55.1052414 118,54.0008254 C118,52.8964094 118.894759,52 119.999175,52 C121.105241,52 122,52.8964094 122,54.0008254" id="Fill-34" fill="#404042" mask="url(#mask-2)"></path>
                <path d="M122,54.0008254 C122,55.1052414 121.105241,56 119.999175,56 C118.894759,56 118,55.1052414 118,54.0008254 C118,52.8964094 118.894759,52 119.999175,52 C121.105241,52 122,52.8964094 122,54.0008254 Z" id="Stroke-35" stroke="#231F20" mask="url(#mask-2)"></path>
                <path d="M156,54.0008254 C156,55.1052414 155.105241,56 153.999175,56 C152.894759,56 152,55.1052414 152,54.0008254 C152,52.8964094 152.894759,52 153.999175,52 C155.105241,52 156,52.8964094 156,54.0008254" id="Fill-36" fill="#404042" mask="url(#mask-2)"></path>
                <path d="M156,54.0008254 C156,55.1052414 155.105241,56 153.999175,56 C152.894759,56 152,55.1052414 152,54.0008254 C152,52.8964094 152.894759,52 153.999175,52 C155.105241,52 156,52.8964094 156,54.0008254 Z" id="Stroke-37" stroke="#231F20" mask="url(#mask-2)"></path>
                <path d="M174,54.0008254 C174,55.1052414 173.105241,56 172.000825,56 C170.896409,56 170,55.1052414 170,54.0008254 C170,52.8964094 170.896409,52 172.000825,52 C173.105241,52 174,52.8964094 174,54.0008254" id="Fill-38" fill="#404042" mask="url(#mask-2)"></path>
                <path d="M174,54.0008254 C174,55.1052414 173.105241,56 172.000825,56 C170.896409,56 170,55.1052414 170,54.0008254 C170,52.8964094 170.896409,52 172.000825,52 C173.105241,52 174,52.8964094 174,54.0008254 Z" id="Stroke-39" stroke="#231F20" mask="url(#mask-2)"></path>
                <path d="M191,54.0008254 C191,55.1052414 190.105241,56 189.000825,56 C187.896409,56 187,55.1052414 187,54.0008254 C187,52.8964094 187.896409,52 189.000825,52 C190.105241,52 191,52.8964094 191,54.0008254" id="Fill-40" fill="#404042" mask="url(#mask-2)"></path>
                <path d="M191,54.0008254 C191,55.1052414 190.105241,56 189.000825,56 C187.896409,56 187,55.1052414 187,54.0008254 C187,52.8964094 187.896409,52 189.000825,52 C190.105241,52 191,52.8964094 191,54.0008254 Z" id="Stroke-41" stroke="#231F20" mask="url(#mask-2)"></path>
                <path d="M208,54.0008254 C208,55.1052414 207.105241,56 206.000825,56 C204.896409,56 204,55.1052414 204,54.0008254 C204,52.8964094 204.896409,52 206.000825,52 C207.105241,52 208,52.8964094 208,54.0008254" id="Fill-42" fill="#404042" mask="url(#mask-2)"></path>
                <path d="M208,54.0008254 C208,55.1052414 207.105241,56 206.000825,56 C204.896409,56 204,55.1052414 204,54.0008254 C204,52.8964094 204.896409,52 206.000825,52 C207.105241,52 208,52.8964094 208,54.0008254 Z" id="Stroke-43" stroke="#231F20" mask="url(#mask-2)"></path>
                <path d="M226,54.0008254 C226,55.1052414 225.105241,56 224.000825,56 C222.896409,56 222,55.1052414 222,54.0008254 C222,52.8964094 222.896409,52 224.000825,52 C225.105241,52 226,52.8964094 226,54.0008254" id="Fill-44" fill="#404042" mask="url(#mask-2)"></path>
                <path d="M226,54.0008254 C226,55.1052414 225.105241,56 224.000825,56 C222.896409,56 222,55.1052414 222,54.0008254 C222,52.8964094 222.896409,52 224.000825,52 C225.105241,52 226,52.8964094 226,54.0008254 Z" id="Stroke-45" stroke="#231F20" mask="url(#mask-2)"></path>
                <path d="M243,54.0008254 C243,55.1052414 242.105241,56 241.000825,56 C239.896409,56 239,55.1052414 239,54.0008254 C239,52.8964094 239.896409,52 241.000825,52 C242.105241,52 243,52.8964094 243,54.0008254" id="Fill-46" fill="#404042" mask="url(#mask-2)"></path>
                <path d="M243,54.0008254 C243,55.1052414 242.105241,56 241.000825,56 C239.896409,56 239,55.1052414 239,54.0008254 C239,52.8964094 239.896409,52 241.000825,52 C242.105241,52 243,52.8964094 243,54.0008254 Z" id="Stroke-47" stroke="#231F20" mask="url(#mask-2)"></path>
                <path d="M260,54.0008254 C260,55.1052414 259.105241,56 258.000825,56 C256.896409,56 256,55.1052414 256,54.0008254 C256,52.8964094 256.896409,52 258.000825,52 C259.105241,52 260,52.8964094 260,54.0008254" id="Fill-48" fill="#404042" mask="url(#mask-2)"></path>
                <path d="M260,54.0008254 C260,55.1052414 259.105241,56 258.000825,56 C256.896409,56 256,55.1052414 256,54.0008254 C256,52.8964094 256.896409,52 258.000825,52 C259.105241,52 260,52.8964094 260,54.0008254 Z" id="Stroke-49" stroke="#231F20" mask="url(#mask-2)"></path>
                <path d="M139,71.0008254 C139,72.1052414 138.105241,73 136.999175,73 C135.894759,73 135,72.1052414 135,71.0008254 C135,69.8964094 135.894759,69 136.999175,69 C138.105241,69 139,69.8964094 139,71.0008254" id="Fill-50" fill="#404042" mask="url(#mask-2)"></path>
                <path d="M139,71.0008254 C139,72.1052414 138.105241,73 136.999175,73 C135.894759,73 135,72.1052414 135,71.0008254 C135,69.8964094 135.894759,69 136.999175,69 C138.105241,69 139,69.8964094 139,71.0008254 Z" id="Stroke-51" stroke="#231F20" mask="url(#mask-2)"></path>
                <path d="M122,71.0008254 C122,72.1052414 121.105241,73 119.999175,73 C118.894759,73 118,72.1052414 118,71.0008254 C118,69.8964094 118.894759,69 119.999175,69 C121.105241,69 122,69.8964094 122,71.0008254" id="Fill-52" fill="#404042" mask="url(#mask-2)"></path>
                <path d="M122,71.0008254 C122,72.1052414 121.105241,73 119.999175,73 C118.894759,73 118,72.1052414 118,71.0008254 C118,69.8964094 118.894759,69 119.999175,69 C121.105241,69 122,69.8964094 122,71.0008254 Z" id="Stroke-53" stroke="#231F20" mask="url(#mask-2)"></path>
                <path d="M156,71.0008254 C156,72.1052414 155.105241,73 153.999175,73 C152.894759,73 152,72.1052414 152,71.0008254 C152,69.8964094 152.894759,69 153.999175,69 C155.105241,69 156,69.8964094 156,71.0008254" id="Fill-54" fill="#404042" mask="url(#mask-2)"></path>
                <path d="M156,71.0008254 C156,72.1052414 155.105241,73 153.999175,73 C152.894759,73 152,72.1052414 152,71.0008254 C152,69.8964094 152.894759,69 153.999175,69 C155.105241,69 156,69.8964094 156,71.0008254 Z" id="Stroke-55" stroke="#231F20" mask="url(#mask-2)"></path>
                <path d="M174,71.0008254 C174,72.1052414 173.105241,73 172.000825,73 C170.896409,73 170,72.1052414 170,71.0008254 C170,69.8964094 170.896409,69 172.000825,69 C173.105241,69 174,69.8964094 174,71.0008254" id="Fill-56" fill="#404042" mask="url(#mask-2)"></path>
                <path d="M174,71.0008254 C174,72.1052414 173.105241,73 172.000825,73 C170.896409,73 170,72.1052414 170,71.0008254 C170,69.8964094 170.896409,69 172.000825,69 C173.105241,69 174,69.8964094 174,71.0008254 Z" id="Stroke-57" stroke="#231F20" mask="url(#mask-2)"></path>
                <path d="M191,71.0008254 C191,72.1052414 190.105241,73 189.000825,73 C187.896409,73 187,72.1052414 187,71.0008254 C187,69.8964094 187.896409,69 189.000825,69 C190.105241,69 191,69.8964094 191,71.0008254" id="Fill-58" fill="#404042" mask="url(#mask-2)"></path>
                <path d="M191,71.0008254 C191,72.1052414 190.105241,73 189.000825,73 C187.896409,73 187,72.1052414 187,71.0008254 C187,69.8964094 187.896409,69 189.000825,69 C190.105241,69 191,69.8964094 191,71.0008254 Z" id="Stroke-59" stroke="#231F20" mask="url(#mask-2)"></path>
                <path d="M208,71.0008254 C208,72.1052414 207.105241,73 206.000825,73 C204.896409,73 204,72.1052414 204,71.0008254 C204,69.8964094 204.896409,69 206.000825,69 C207.105241,69 208,69.8964094 208,71.0008254" id="Fill-60" fill="#404042" mask="url(#mask-2)"></path>
                <path d="M208,71.0008254 C208,72.1052414 207.105241,73 206.000825,73 C204.896409,73 204,72.1052414 204,71.0008254 C204,69.8964094 204.896409,69 206.000825,69 C207.105241,69 208,69.8964094 208,71.0008254 Z" id="Stroke-61" stroke="#231F20" mask="url(#mask-2)"></path>
                <path d="M226,71.0008254 C226,72.1052414 225.105241,73 224.000825,73 C222.896409,73 222,72.1052414 222,71.0008254 C222,69.8964094 222.896409,69 224.000825,69 C225.105241,69 226,69.8964094 226,71.0008254" id="Fill-62" fill="#404042" mask="url(#mask-2)"></path>
                <path d="M226,71.0008254 C226,72.1052414 225.105241,73 224.000825,73 C222.896409,73 222,72.1052414 222,71.0008254 C222,69.8964094 222.896409,69 224.000825,69 C225.105241,69 226,69.8964094 226,71.0008254 Z" id="Stroke-63" stroke="#231F20" mask="url(#mask-2)"></path>
                <path d="M243,71.0008254 C243,72.1052414 242.105241,73 241.000825,73 C239.896409,73 239,72.1052414 239,71.0008254 C239,69.8964094 239.896409,69 241.000825,69 C242.105241,69 243,69.8964094 243,71.0008254" id="Fill-64" fill="#404042" mask="url(#mask-2)"></path>
                <path d="M243,71.0008254 C243,72.1052414 242.105241,73 241.000825,73 C239.896409,73 239,72.1052414 239,71.0008254 C239,69.8964094 239.896409,69 241.000825,69 C242.105241,69 243,69.8964094 243,71.0008254 Z" id="Stroke-65" stroke="#231F20" mask="url(#mask-2)"></path>
                <path d="M260,71.0008254 C260,72.1052414 259.105241,73 258.000825,73 C256.896409,73 256,72.1052414 256,71.0008254 C256,69.8964094 256.896409,69 258.000825,69 C259.105241,69 260,69.8964094 260,71.0008254" id="Fill-66" fill="#404042" mask="url(#mask-2)"></path>
                <path d="M260,71.0008254 C260,72.1052414 259.105241,73 258.000825,73 C256.896409,73 256,72.1052414 256,71.0008254 C256,69.8964094 256.896409,69 258.000825,69 C259.105241,69 260,69.8964094 260,71.0008254 Z" id="Stroke-67" stroke="#231F20" mask="url(#mask-2)"></path>
                <path d="M139,88.0008254 C139,89.1052414 138.105241,90 136.999175,90 C135.894759,90 135,89.1052414 135,88.0008254 C135,86.8964094 135.894759,86 136.999175,86 C138.105241,86 139,86.8964094 139,88.0008254" id="Fill-68" fill="#404042" mask="url(#mask-2)"></path>
                <path d="M139,88.0008254 C139,89.1052414 138.105241,90 136.999175,90 C135.894759,90 135,89.1052414 135,88.0008254 C135,86.8964094 135.894759,86 136.999175,86 C138.105241,86 139,86.8964094 139,88.0008254 Z" id="Stroke-69" stroke="#231F20" mask="url(#mask-2)"></path>
                <path d="M122,88.0008254 C122,89.1052414 121.105241,90 119.999175,90 C118.894759,90 118,89.1052414 118,88.0008254 C118,86.8964094 118.894759,86 119.999175,86 C121.105241,86 122,86.8964094 122,88.0008254" id="Fill-70" fill="#404042" mask="url(#mask-2)"></path>
                <path d="M122,88.0008254 C122,89.1052414 121.105241,90 119.999175,90 C118.894759,90 118,89.1052414 118,88.0008254 C118,86.8964094 118.894759,86 119.999175,86 C121.105241,86 122,86.8964094 122,88.0008254 Z" id="Stroke-71" stroke="#231F20" mask="url(#mask-2)"></path>
                <path d="M156,88.0008254 C156,89.1052414 155.105241,90 153.999175,90 C152.894759,90 152,89.1052414 152,88.0008254 C152,86.8964094 152.894759,86 153.999175,86 C155.105241,86 156,86.8964094 156,88.0008254" id="Fill-72" fill="#404042" mask="url(#mask-2)"></path>
                <path d="M156,88.0008254 C156,89.1052414 155.105241,90 153.999175,90 C152.894759,90 152,89.1052414 152,88.0008254 C152,86.8964094 152.894759,86 153.999175,86 C155.105241,86 156,86.8964094 156,88.0008254 Z" id="Stroke-73" stroke="#231F20" mask="url(#mask-2)"></path>
                <path d="M174,88.0008254 C174,89.1052414 173.105241,90 172.000825,90 C170.896409,90 170,89.1052414 170,88.0008254 C170,86.8964094 170.896409,86 172.000825,86 C173.105241,86 174,86.8964094 174,88.0008254" id="Fill-74" fill="#404042" mask="url(#mask-2)"></path>
                <path d="M174,88.0008254 C174,89.1052414 173.105241,90 172.000825,90 C170.896409,90 170,89.1052414 170,88.0008254 C170,86.8964094 170.896409,86 172.000825,86 C173.105241,86 174,86.8964094 174,88.0008254 Z" id="Stroke-75" stroke="#231F20" mask="url(#mask-2)"></path>
                <path d="M191,88.0008254 C191,89.1052414 190.105241,90 189.000825,90 C187.896409,90 187,89.1052414 187,88.0008254 C187,86.8964094 187.896409,86 189.000825,86 C190.105241,86 191,86.8964094 191,88.0008254" id="Fill-76" fill="#404042" mask="url(#mask-2)"></path>
                <path d="M191,88.0008254 C191,89.1052414 190.105241,90 189.000825,90 C187.896409,90 187,89.1052414 187,88.0008254 C187,86.8964094 187.896409,86 189.000825,86 C190.105241,86 191,86.8964094 191,88.0008254 Z" id="Stroke-77" stroke="#231F20" mask="url(#mask-2)"></path>
                <path d="M208,88.0008254 C208,89.1052414 207.105241,90 206.000825,90 C204.896409,90 204,89.1052414 204,88.0008254 C204,86.8964094 204.896409,86 206.000825,86 C207.105241,86 208,86.8964094 208,88.0008254" id="Fill-78" fill="#404042" mask="url(#mask-2)"></path>
                <path d="M208,88.0008254 C208,89.1052414 207.105241,90 206.000825,90 C204.896409,90 204,89.1052414 204,88.0008254 C204,86.8964094 204.896409,86 206.000825,86 C207.105241,86 208,86.8964094 208,88.0008254 Z" id="Stroke-79" stroke="#231F20" mask="url(#mask-2)"></path>
                <path d="M226,88.0008254 C226,89.1052414 225.105241,90 224.000825,90 C222.896409,90 222,89.1052414 222,88.0008254 C222,86.8964094 222.896409,86 224.000825,86 C225.105241,86 226,86.8964094 226,88.0008254" id="Fill-80" fill="#404042" mask="url(#mask-2)"></path>
                <path d="M226,88.0008254 C226,89.1052414 225.105241,90 224.000825,90 C222.896409,90 222,89.1052414 222,88.0008254 C222,86.8964094 222.896409,86 224.000825,86 C225.105241,86 226,86.8964094 226,88.0008254 Z" id="Stroke-81" stroke="#231F20" mask="url(#mask-2)"></path>
                <path d="M243,88.0008254 C243,89.1052414 242.105241,90 241.000825,90 C239.896409,90 239,89.1052414 239,88.0008254 C239,86.8964094 239.896409,86 241.000825,86 C242.105241,86 243,86.8964094 243,88.0008254" id="Fill-82" fill="#404042" mask="url(#mask-2)"></path>
                <path d="M243,88.0008254 C243,89.1052414 242.105241,90 241.000825,90 C239.896409,90 239,89.1052414 239,88.0008254 C239,86.8964094 239.896409,86 241.000825,86 C242.105241,86 243,86.8964094 243,88.0008254 Z" id="Stroke-83" stroke="#231F20" mask="url(#mask-2)"></path>
                <path d="M260,88.0008254 C260,89.1052414 259.105241,90 258.000825,90 C256.896409,90 256,89.1052414 256,88.0008254 C256,86.8964094 256.896409,86 258.000825,86 C259.105241,86 260,86.8964094 260,88.0008254" id="Fill-84" fill="#404042" mask="url(#mask-2)"></path>
                <path d="M260,88.0008254 C260,89.1052414 259.105241,90 258.000825,90 C256.896409,90 256,89.1052414 256,88.0008254 C256,86.8964094 256.896409,86 258.000825,86 C259.105241,86 260,86.8964094 260,88.0008254 Z" id="Stroke-85" stroke="#231F20" mask="url(#mask-2)"></path>
                <path d="M139,106.000825 C139,107.105241 138.105241,108 136.999175,108 C135.894759,108 135,107.105241 135,106.000825 C135,104.896409 135.894759,104 136.999175,104 C138.105241,104 139,104.896409 139,106.000825" id="Fill-86" fill="#404042" mask="url(#mask-2)"></path>
                <path d="M139,106.000825 C139,107.105241 138.105241,108 136.999175,108 C135.894759,108 135,107.105241 135,106.000825 C135,104.896409 135.894759,104 136.999175,104 C138.105241,104 139,104.896409 139,106.000825 Z" id="Stroke-87" stroke="#231F20" mask="url(#mask-2)"></path>
                <path d="M122,106.000825 C122,107.105241 121.105241,108 119.999175,108 C118.894759,108 118,107.105241 118,106.000825 C118,104.896409 118.894759,104 119.999175,104 C121.105241,104 122,104.896409 122,106.000825" id="Fill-88" fill="#404042" mask="url(#mask-2)"></path>
                <path d="M122,106.000825 C122,107.105241 121.105241,108 119.999175,108 C118.894759,108 118,107.105241 118,106.000825 C118,104.896409 118.894759,104 119.999175,104 C121.105241,104 122,104.896409 122,106.000825 Z" id="Stroke-89" stroke="#231F20" mask="url(#mask-2)"></path>
                <path d="M156,106.000825 C156,107.105241 155.105241,108 153.999175,108 C152.894759,108 152,107.105241 152,106.000825 C152,104.896409 152.894759,104 153.999175,104 C155.105241,104 156,104.896409 156,106.000825" id="Fill-90" fill="#404042" mask="url(#mask-2)"></path>
                <path d="M156,106.000825 C156,107.105241 155.105241,108 153.999175,108 C152.894759,108 152,107.105241 152,106.000825 C152,104.896409 152.894759,104 153.999175,104 C155.105241,104 156,104.896409 156,106.000825 Z" id="Stroke-91" stroke="#231F20" mask="url(#mask-2)"></path>
                <path d="M174,106.000825 C174,107.105241 173.105241,108 172.000825,108 C170.896409,108 170,107.105241 170,106.000825 C170,104.896409 170.896409,104 172.000825,104 C173.105241,104 174,104.896409 174,106.000825" id="Fill-92" fill="#404042" mask="url(#mask-2)"></path>
                <path d="M174,106.000825 C174,107.105241 173.105241,108 172.000825,108 C170.896409,108 170,107.105241 170,106.000825 C170,104.896409 170.896409,104 172.000825,104 C173.105241,104 174,104.896409 174,106.000825 Z" id="Stroke-93" stroke="#231F20" mask="url(#mask-2)"></path>
                <path d="M191,106.000825 C191,107.105241 190.105241,108 189.000825,108 C187.896409,108 187,107.105241 187,106.000825 C187,104.896409 187.896409,104 189.000825,104 C190.105241,104 191,104.896409 191,106.000825" id="Fill-94" fill="#404042" mask="url(#mask-2)"></path>
                <path d="M191,106.000825 C191,107.105241 190.105241,108 189.000825,108 C187.896409,108 187,107.105241 187,106.000825 C187,104.896409 187.896409,104 189.000825,104 C190.105241,104 191,104.896409 191,106.000825 Z" id="Stroke-95" stroke="#231F20" mask="url(#mask-2)"></path>
                <path d="M208,106.000825 C208,107.105241 207.105241,108 206.000825,108 C204.896409,108 204,107.105241 204,106.000825 C204,104.896409 204.896409,104 206.000825,104 C207.105241,104 208,104.896409 208,106.000825" id="Fill-96" fill="#404042" mask="url(#mask-2)"></path>
                <path d="M208,106.000825 C208,107.105241 207.105241,108 206.000825,108 C204.896409,108 204,107.105241 204,106.000825 C204,104.896409 204.896409,104 206.000825,104 C207.105241,104 208,104.896409 208,106.000825 Z" id="Stroke-97" stroke="#231F20" mask="url(#mask-2)"></path>
                <path d="M226,106.000825 C226,107.105241 225.105241,108 224.000825,108 C222.896409,108 222,107.105241 222,106.000825 C222,104.896409 222.896409,104 224.000825,104 C225.105241,104 226,104.896409 226,106.000825" id="Fill-98" fill="#404042" mask="url(#mask-2)"></path>
                <path d="M226,106.000825 C226,107.105241 225.105241,108 224.000825,108 C222.896409,108 222,107.105241 222,106.000825 C222,104.896409 222.896409,104 224.000825,104 C225.105241,104 226,104.896409 226,106.000825 Z" id="Stroke-99" stroke="#231F20" mask="url(#mask-2)"></path>
                <path d="M243,106.000825 C243,107.105241 242.105241,108 241.000825,108 C239.896409,108 239,107.105241 239,106.000825 C239,104.896409 239.896409,104 241.000825,104 C242.105241,104 243,104.896409 243,106.000825" id="Fill-100" fill="#404042" mask="url(#mask-2)"></path>
                <path d="M243,106.000825 C243,107.105241 242.105241,108 241.000825,108 C239.896409,108 239,107.105241 239,106.000825 C239,104.896409 239.896409,104 241.000825,104 C242.105241,104 243,104.896409 243,106.000825 Z" id="Stroke-101" stroke="#231F20" mask="url(#mask-2)"></path>
                <path d="M260,106.000825 C260,107.105241 259.105241,108 258.000825,108 C256.896409,108 256,107.105241 256,106.000825 C256,104.896409 256.896409,104 258.000825,104 C259.105241,104 260,104.896409 260,106.000825" id="Fill-102" fill="#404042" mask="url(#mask-2)"></path>
                <path d="M260,106.000825 C260,107.105241 259.105241,108 258.000825,108 C256.896409,108 256,107.105241 256,106.000825 C256,104.896409 256.896409,104 258.000825,104 C259.105241,104 260,104.896409 260,106.000825 Z" id="Stroke-103" stroke="#231F20" mask="url(#mask-2)"></path>
                <path d="M139,123.000825 C139,124.105241 138.105241,125 136.999175,125 C135.894759,125 135,124.105241 135,123.000825 C135,121.896409 135.894759,121 136.999175,121 C138.105241,121 139,121.896409 139,123.000825" id="Fill-104" fill="#404042" mask="url(#mask-2)"></path>
                <path d="M139,123.000825 C139,124.105241 138.105241,125 136.999175,125 C135.894759,125 135,124.105241 135,123.000825 C135,121.896409 135.894759,121 136.999175,121 C138.105241,121 139,121.896409 139,123.000825 Z" id="Stroke-105" stroke="#231F20" mask="url(#mask-2)"></path>
                <path d="M122,123.000825 C122,124.105241 121.105241,125 119.999175,125 C118.894759,125 118,124.105241 118,123.000825 C118,121.896409 118.894759,121 119.999175,121 C121.105241,121 122,121.896409 122,123.000825" id="Fill-106" fill="#404042" mask="url(#mask-2)"></path>
                <path d="M122,123.000825 C122,124.105241 121.105241,125 119.999175,125 C118.894759,125 118,124.105241 118,123.000825 C118,121.896409 118.894759,121 119.999175,121 C121.105241,121 122,121.896409 122,123.000825 Z" id="Stroke-107" stroke="#231F20" mask="url(#mask-2)"></path>
                <path d="M156,123.000825 C156,124.105241 155.105241,125 153.999175,125 C152.894759,125 152,124.105241 152,123.000825 C152,121.896409 152.894759,121 153.999175,121 C155.105241,121 156,121.896409 156,123.000825" id="Fill-108" fill="#404042" mask="url(#mask-2)"></path>
                <path d="M156,123.000825 C156,124.105241 155.105241,125 153.999175,125 C152.894759,125 152,124.105241 152,123.000825 C152,121.896409 152.894759,121 153.999175,121 C155.105241,121 156,121.896409 156,123.000825 Z" id="Stroke-109" stroke="#231F20" mask="url(#mask-2)"></path>
                <path d="M174,123.000825 C174,124.105241 173.105241,125 172.000825,125 C170.896409,125 170,124.105241 170,123.000825 C170,121.896409 170.896409,121 172.000825,121 C173.105241,121 174,121.896409 174,123.000825" id="Fill-110" fill="#404042" mask="url(#mask-2)"></path>
                <path d="M174,123.000825 C174,124.105241 173.105241,125 172.000825,125 C170.896409,125 170,124.105241 170,123.000825 C170,121.896409 170.896409,121 172.000825,121 C173.105241,121 174,121.896409 174,123.000825 Z" id="Stroke-111" stroke="#231F20" mask="url(#mask-2)"></path>
                <path d="M191,123.000825 C191,124.105241 190.105241,125 189.000825,125 C187.896409,125 187,124.105241 187,123.000825 C187,121.896409 187.896409,121 189.000825,121 C190.105241,121 191,121.896409 191,123.000825" id="Fill-112" fill="#404042" mask="url(#mask-2)"></path>
                <path d="M191,123.000825 C191,124.105241 190.105241,125 189.000825,125 C187.896409,125 187,124.105241 187,123.000825 C187,121.896409 187.896409,121 189.000825,121 C190.105241,121 191,121.896409 191,123.000825 Z" id="Stroke-113" stroke="#231F20" mask="url(#mask-2)"></path>
                <path d="M208,123.000825 C208,124.105241 207.105241,125 206.000825,125 C204.896409,125 204,124.105241 204,123.000825 C204,121.896409 204.896409,121 206.000825,121 C207.105241,121 208,121.896409 208,123.000825" id="Fill-114" fill="#404042" mask="url(#mask-2)"></path>
                <path d="M208,123.000825 C208,124.105241 207.105241,125 206.000825,125 C204.896409,125 204,124.105241 204,123.000825 C204,121.896409 204.896409,121 206.000825,121 C207.105241,121 208,121.896409 208,123.000825 Z" id="Stroke-115" stroke="#231F20" mask="url(#mask-2)"></path>
                <path d="M226,123.000825 C226,124.105241 225.105241,125 224.000825,125 C222.896409,125 222,124.105241 222,123.000825 C222,121.896409 222.896409,121 224.000825,121 C225.105241,121 226,121.896409 226,123.000825" id="Fill-116" fill="#404042" mask="url(#mask-2)"></path>
                <path d="M226,123.000825 C226,124.105241 225.105241,125 224.000825,125 C222.896409,125 222,124.105241 222,123.000825 C222,121.896409 222.896409,121 224.000825,121 C225.105241,121 226,121.896409 226,123.000825 Z" id="Stroke-117" stroke="#231F20" mask="url(#mask-2)"></path>
                <path d="M243,123.000825 C243,124.105241 242.105241,125 241.000825,125 C239.896409,125 239,124.105241 239,123.000825 C239,121.896409 239.896409,121 241.000825,121 C242.105241,121 243,121.896409 243,123.000825" id="Fill-118" fill="#404042" mask="url(#mask-2)"></path>
                <path d="M243,123.000825 C243,124.105241 242.105241,125 241.000825,125 C239.896409,125 239,124.105241 239,123.000825 C239,121.896409 239.896409,121 241.000825,121 C242.105241,121 243,121.896409 243,123.000825 Z" id="Stroke-119" stroke="#231F20" mask="url(#mask-2)"></path>
                <path d="M260,123.000825 C260,124.105241 259.105241,125 258.000825,125 C256.896409,125 256,124.105241 256,123.000825 C256,121.896409 256.896409,121 258.000825,121 C259.105241,121 260,121.896409 260,123.000825" id="Fill-120" fill="#404042" mask="url(#mask-2)"></path>
                <path d="M260,123.000825 C260,124.105241 259.105241,125 258.000825,125 C256.896409,125 256,124.105241 256,123.000825 C256,121.896409 256.896409,121 258.000825,121 C259.105241,121 260,121.896409 260,123.000825 Z" id="Stroke-121" stroke="#231F20" mask="url(#mask-2)"></path>
                <path d="M139,140.000825 C139,141.105241 138.105241,142 136.999175,142 C135.894759,142 135,141.105241 135,140.000825 C135,138.896409 135.894759,138 136.999175,138 C138.105241,138 139,138.896409 139,140.000825" id="Fill-122" fill="#404042" mask="url(#mask-2)"></path>
                <path d="M139,140.000825 C139,141.105241 138.105241,142 136.999175,142 C135.894759,142 135,141.105241 135,140.000825 C135,138.896409 135.894759,138 136.999175,138 C138.105241,138 139,138.896409 139,140.000825 Z" id="Stroke-123" stroke="#231F20" mask="url(#mask-2)"></path>
                <path d="M122,140.000825 C122,141.105241 121.105241,142 119.999175,142 C118.894759,142 118,141.105241 118,140.000825 C118,138.896409 118.894759,138 119.999175,138 C121.105241,138 122,138.896409 122,140.000825" id="Fill-124" fill="#404042" mask="url(#mask-2)"></path>
                <path d="M122,140.000825 C122,141.105241 121.105241,142 119.999175,142 C118.894759,142 118,141.105241 118,140.000825 C118,138.896409 118.894759,138 119.999175,138 C121.105241,138 122,138.896409 122,140.000825 Z" id="Stroke-125" stroke="#231F20" mask="url(#mask-2)"></path>
                <path d="M156,140.000825 C156,141.105241 155.105241,142 153.999175,142 C152.894759,142 152,141.105241 152,140.000825 C152,138.896409 152.894759,138 153.999175,138 C155.105241,138 156,138.896409 156,140.000825" id="Fill-126" fill="#404042" mask="url(#mask-2)"></path>
                <path d="M156,140.000825 C156,141.105241 155.105241,142 153.999175,142 C152.894759,142 152,141.105241 152,140.000825 C152,138.896409 152.894759,138 153.999175,138 C155.105241,138 156,138.896409 156,140.000825 Z" id="Stroke-127" stroke="#231F20" mask="url(#mask-2)"></path>
                <path d="M174,140.000825 C174,141.105241 173.105241,142 172.000825,142 C170.896409,142 170,141.105241 170,140.000825 C170,138.896409 170.896409,138 172.000825,138 C173.105241,138 174,138.896409 174,140.000825" id="Fill-128" fill="#404042" mask="url(#mask-2)"></path>
                <path d="M174,140.000825 C174,141.105241 173.105241,142 172.000825,142 C170.896409,142 170,141.105241 170,140.000825 C170,138.896409 170.896409,138 172.000825,138 C173.105241,138 174,138.896409 174,140.000825 Z" id="Stroke-129" stroke="#231F20" mask="url(#mask-2)"></path>
                <path d="M191,140.000825 C191,141.105241 190.105241,142 189.000825,142 C187.896409,142 187,141.105241 187,140.000825 C187,138.896409 187.896409,138 189.000825,138 C190.105241,138 191,138.896409 191,140.000825" id="Fill-130" fill="#404042" mask="url(#mask-2)"></path>
                <path d="M191,140.000825 C191,141.105241 190.105241,142 189.000825,142 C187.896409,142 187,141.105241 187,140.000825 C187,138.896409 187.896409,138 189.000825,138 C190.105241,138 191,138.896409 191,140.000825 Z" id="Stroke-131" stroke="#231F20" mask="url(#mask-2)"></path>
                <path d="M208,140.000825 C208,141.105241 207.105241,142 206.000825,142 C204.896409,142 204,141.105241 204,140.000825 C204,138.896409 204.896409,138 206.000825,138 C207.105241,138 208,138.896409 208,140.000825" id="Fill-132" fill="#404042" mask="url(#mask-2)"></path>
                <path d="M208,140.000825 C208,141.105241 207.105241,142 206.000825,142 C204.896409,142 204,141.105241 204,140.000825 C204,138.896409 204.896409,138 206.000825,138 C207.105241,138 208,138.896409 208,140.000825 Z" id="Stroke-133" stroke="#231F20" mask="url(#mask-2)"></path>
                <path d="M226,140.000825 C226,141.105241 225.105241,142 224.000825,142 C222.896409,142 222,141.105241 222,140.000825 C222,138.896409 222.896409,138 224.000825,138 C225.105241,138 226,138.896409 226,140.000825" id="Fill-134" fill="#404042" mask="url(#mask-2)"></path>
                <path d="M226,140.000825 C226,141.105241 225.105241,142 224.000825,142 C222.896409,142 222,141.105241 222,140.000825 C222,138.896409 222.896409,138 224.000825,138 C225.105241,138 226,138.896409 226,140.000825 Z" id="Stroke-135" stroke="#231F20" mask="url(#mask-2)"></path>
                <path d="M243,140.000825 C243,141.105241 242.105241,142 241.000825,142 C239.896409,142 239,141.105241 239,140.000825 C239,138.896409 239.896409,138 241.000825,138 C242.105241,138 243,138.896409 243,140.000825" id="Fill-136" fill="#404042" mask="url(#mask-2)"></path>
                <path d="M243,140.000825 C243,141.105241 242.105241,142 241.000825,142 C239.896409,142 239,141.105241 239,140.000825 C239,138.896409 239.896409,138 241.000825,138 C242.105241,138 243,138.896409 243,140.000825 Z" id="Stroke-137" stroke="#231F20" mask="url(#mask-2)"></path>
                <path d="M260,140.000825 C260,141.105241 259.105241,142 258.000825,142 C256.896409,142 256,141.105241 256,140.000825 C256,138.896409 256.896409,138 258.000825,138 C259.105241,138 260,138.896409 260,140.000825" id="Fill-138" fill="#404042" mask="url(#mask-2)"></path>
                <path d="M260,140.000825 C260,141.105241 259.105241,142 258.000825,142 C256.896409,142 256,141.105241 256,140.000825 C256,138.896409 256.896409,138 258.000825,138 C259.105241,138 260,138.896409 260,140.000825 Z" id="Stroke-139" stroke="#231F20" mask="url(#mask-2)"></path>
                <path d="M139,158.000825 C139,159.105241 138.105241,160 136.999175,160 C135.894759,160 135,159.105241 135,158.000825 C135,156.896409 135.894759,156 136.999175,156 C138.105241,156 139,156.896409 139,158.000825" id="Fill-140" fill="#404042" mask="url(#mask-2)"></path>
                <path d="M139,158.000825 C139,159.105241 138.105241,160 136.999175,160 C135.894759,160 135,159.105241 135,158.000825 C135,156.896409 135.894759,156 136.999175,156 C138.105241,156 139,156.896409 139,158.000825 Z" id="Stroke-141" stroke="#231F20" mask="url(#mask-2)"></path>
                <path d="M122,158.000825 C122,159.105241 121.105241,160 119.999175,160 C118.894759,160 118,159.105241 118,158.000825 C118,156.896409 118.894759,156 119.999175,156 C121.105241,156 122,156.896409 122,158.000825" id="Fill-142" fill="#404042" mask="url(#mask-2)"></path>
                <path d="M122,158.000825 C122,159.105241 121.105241,160 119.999175,160 C118.894759,160 118,159.105241 118,158.000825 C118,156.896409 118.894759,156 119.999175,156 C121.105241,156 122,156.896409 122,158.000825 Z" id="Stroke-143" stroke="#231F20" mask="url(#mask-2)"></path>
                <path d="M156,158.000825 C156,159.105241 155.105241,160 153.999175,160 C152.894759,160 152,159.105241 152,158.000825 C152,156.896409 152.894759,156 153.999175,156 C155.105241,156 156,156.896409 156,158.000825" id="Fill-144" fill="#404042" mask="url(#mask-2)"></path>
                <path d="M156,158.000825 C156,159.105241 155.105241,160 153.999175,160 C152.894759,160 152,159.105241 152,158.000825 C152,156.896409 152.894759,156 153.999175,156 C155.105241,156 156,156.896409 156,158.000825 Z" id="Stroke-145" stroke="#231F20" mask="url(#mask-2)"></path>
                <path d="M174,158.000825 C174,159.105241 173.105241,160 172.000825,160 C170.896409,160 170,159.105241 170,158.000825 C170,156.896409 170.896409,156 172.000825,156 C173.105241,156 174,156.896409 174,158.000825" id="Fill-146" fill="#404042" mask="url(#mask-2)"></path>
                <path d="M174,158.000825 C174,159.105241 173.105241,160 172.000825,160 C170.896409,160 170,159.105241 170,158.000825 C170,156.896409 170.896409,156 172.000825,156 C173.105241,156 174,156.896409 174,158.000825 Z" id="Stroke-147" stroke="#231F20" mask="url(#mask-2)"></path>
                <path d="M191,158.000825 C191,159.105241 190.105241,160 189.000825,160 C187.896409,160 187,159.105241 187,158.000825 C187,156.896409 187.896409,156 189.000825,156 C190.105241,156 191,156.896409 191,158.000825" id="Fill-148" fill="#404042" mask="url(#mask-2)"></path>
                <path d="M191,158.000825 C191,159.105241 190.105241,160 189.000825,160 C187.896409,160 187,159.105241 187,158.000825 C187,156.896409 187.896409,156 189.000825,156 C190.105241,156 191,156.896409 191,158.000825 Z" id="Stroke-149" stroke="#231F20" mask="url(#mask-2)"></path>
                <path d="M208,158.000825 C208,159.105241 207.105241,160 206.000825,160 C204.896409,160 204,159.105241 204,158.000825 C204,156.896409 204.896409,156 206.000825,156 C207.105241,156 208,156.896409 208,158.000825" id="Fill-150" fill="#404042" mask="url(#mask-2)"></path>
                <path d="M208,158.000825 C208,159.105241 207.105241,160 206.000825,160 C204.896409,160 204,159.105241 204,158.000825 C204,156.896409 204.896409,156 206.000825,156 C207.105241,156 208,156.896409 208,158.000825 Z" id="Stroke-151" stroke="#231F20" mask="url(#mask-2)"></path>
                <path d="M226,158.000825 C226,159.105241 225.105241,160 224.000825,160 C222.896409,160 222,159.105241 222,158.000825 C222,156.896409 222.896409,156 224.000825,156 C225.105241,156 226,156.896409 226,158.000825" id="Fill-152" fill="#404042" mask="url(#mask-2)"></path>
                <path d="M226,158.000825 C226,159.105241 225.105241,160 224.000825,160 C222.896409,160 222,159.105241 222,158.000825 C222,156.896409 222.896409,156 224.000825,156 C225.105241,156 226,156.896409 226,158.000825 Z" id="Stroke-153" stroke="#231F20" mask="url(#mask-2)"></path>
                <path d="M243,158.000825 C243,159.105241 242.105241,160 241.000825,160 C239.896409,160 239,159.105241 239,158.000825 C239,156.896409 239.896409,156 241.000825,156 C242.105241,156 243,156.896409 243,158.000825" id="Fill-154" fill="#404042" mask="url(#mask-2)"></path>
                <path d="M243,158.000825 C243,159.105241 242.105241,160 241.000825,160 C239.896409,160 239,159.105241 239,158.000825 C239,156.896409 239.896409,156 241.000825,156 C242.105241,156 243,156.896409 243,158.000825 Z" id="Stroke-155" stroke="#231F20" mask="url(#mask-2)"></path>
                <path d="M260,158.000825 C260,159.105241 259.105241,160 258.000825,160 C256.896409,160 256,159.105241 256,158.000825 C256,156.896409 256.896409,156 258.000825,156 C259.105241,156 260,156.896409 260,158.000825" id="Fill-156" fill="#404042" mask="url(#mask-2)"></path>
                <path d="M260,158.000825 C260,159.105241 259.105241,160 258.000825,160 C256.896409,160 256,159.105241 256,158.000825 C256,156.896409 256.896409,156 258.000825,156 C259.105241,156 260,156.896409 260,158.000825 Z" id="Stroke-157" stroke="#231F20" mask="url(#mask-2)"></path>
                <path d="M139,175.000825 C139,176.105241 138.105241,177 136.999175,177 C135.894759,177 135,176.105241 135,175.000825 C135,173.896409 135.894759,173 136.999175,173 C138.105241,173 139,173.896409 139,175.000825" id="Fill-158" fill="#404042" mask="url(#mask-2)"></path>
                <path d="M139,175.000825 C139,176.105241 138.105241,177 136.999175,177 C135.894759,177 135,176.105241 135,175.000825 C135,173.896409 135.894759,173 136.999175,173 C138.105241,173 139,173.896409 139,175.000825 Z" id="Stroke-159" stroke="#231F20" mask="url(#mask-2)"></path>
                <path d="M122,175.000825 C122,176.105241 121.105241,177 119.999175,177 C118.894759,177 118,176.105241 118,175.000825 C118,173.896409 118.894759,173 119.999175,173 C121.105241,173 122,173.896409 122,175.000825" id="Fill-160" fill="#404042" mask="url(#mask-2)"></path>
                <path d="M122,175.000825 C122,176.105241 121.105241,177 119.999175,177 C118.894759,177 118,176.105241 118,175.000825 C118,173.896409 118.894759,173 119.999175,173 C121.105241,173 122,173.896409 122,175.000825 Z" id="Stroke-161" stroke="#231F20" mask="url(#mask-2)"></path>
                <path d="M156,175.000825 C156,176.105241 155.105241,177 153.999175,177 C152.894759,177 152,176.105241 152,175.000825 C152,173.896409 152.894759,173 153.999175,173 C155.105241,173 156,173.896409 156,175.000825" id="Fill-162" fill="#404042" mask="url(#mask-2)"></path>
                <path d="M156,175.000825 C156,176.105241 155.105241,177 153.999175,177 C152.894759,177 152,176.105241 152,175.000825 C152,173.896409 152.894759,173 153.999175,173 C155.105241,173 156,173.896409 156,175.000825 Z" id="Stroke-163" stroke="#231F20" mask="url(#mask-2)"></path>
                <path d="M174,175.000825 C174,176.105241 173.105241,177 172.000825,177 C170.896409,177 170,176.105241 170,175.000825 C170,173.896409 170.896409,173 172.000825,173 C173.105241,173 174,173.896409 174,175.000825" id="Fill-164" fill="#404042" mask="url(#mask-2)"></path>
                <path d="M174,175.000825 C174,176.105241 173.105241,177 172.000825,177 C170.896409,177 170,176.105241 170,175.000825 C170,173.896409 170.896409,173 172.000825,173 C173.105241,173 174,173.896409 174,175.000825 Z" id="Stroke-165" stroke="#231F20" mask="url(#mask-2)"></path>
                <path d="M191,175.000825 C191,176.105241 190.105241,177 189.000825,177 C187.896409,177 187,176.105241 187,175.000825 C187,173.896409 187.896409,173 189.000825,173 C190.105241,173 191,173.896409 191,175.000825" id="Fill-166" fill="#404042" mask="url(#mask-2)"></path>
                <path d="M191,175.000825 C191,176.105241 190.105241,177 189.000825,177 C187.896409,177 187,176.105241 187,175.000825 C187,173.896409 187.896409,173 189.000825,173 C190.105241,173 191,173.896409 191,175.000825 Z" id="Stroke-167" stroke="#231F20" mask="url(#mask-2)"></path>
                <path d="M208,175.000825 C208,176.105241 207.105241,177 206.000825,177 C204.896409,177 204,176.105241 204,175.000825 C204,173.896409 204.896409,173 206.000825,173 C207.105241,173 208,173.896409 208,175.000825" id="Fill-168" fill="#404042" mask="url(#mask-2)"></path>
                <path d="M208,175.000825 C208,176.105241 207.105241,177 206.000825,177 C204.896409,177 204,176.105241 204,175.000825 C204,173.896409 204.896409,173 206.000825,173 C207.105241,173 208,173.896409 208,175.000825 Z" id="Stroke-169" stroke="#231F20" mask="url(#mask-2)"></path>
                <path d="M226,175.000825 C226,176.105241 225.105241,177 224.000825,177 C222.896409,177 222,176.105241 222,175.000825 C222,173.896409 222.896409,173 224.000825,173 C225.105241,173 226,173.896409 226,175.000825" id="Fill-170" fill="#404042" mask="url(#mask-2)"></path>
                <path d="M226,175.000825 C226,176.105241 225.105241,177 224.000825,177 C222.896409,177 222,176.105241 222,175.000825 C222,173.896409 222.896409,173 224.000825,173 C225.105241,173 226,173.896409 226,175.000825 Z" id="Stroke-171" stroke="#231F20" mask="url(#mask-2)"></path>
                <path d="M243,175.000825 C243,176.105241 242.105241,177 241.000825,177 C239.896409,177 239,176.105241 239,175.000825 C239,173.896409 239.896409,173 241.000825,173 C242.105241,173 243,173.896409 243,175.000825" id="Fill-172" fill="#404042" mask="url(#mask-2)"></path>
                <path d="M243,175.000825 C243,176.105241 242.105241,177 241.000825,177 C239.896409,177 239,176.105241 239,175.000825 C239,173.896409 239.896409,173 241.000825,173 C242.105241,173 243,173.896409 243,175.000825 Z" id="Stroke-173" stroke="#231F20" mask="url(#mask-2)"></path>
                <path d="M260,175.000825 C260,176.105241 259.105241,177 258.000825,177 C256.896409,177 256,176.105241 256,175.000825 C256,173.896409 256.896409,173 258.000825,173 C259.105241,173 260,173.896409 260,175.000825" id="Fill-174" fill="#404042" mask="url(#mask-2)"></path>
                <path d="M260,175.000825 C260,176.105241 259.105241,177 258.000825,177 C256.896409,177 256,176.105241 256,175.000825 C256,173.896409 256.896409,173 258.000825,173 C259.105241,173 260,173.896409 260,175.000825 Z" id="Stroke-175" stroke="#231F20" mask="url(#mask-2)"></path>
                <path d="M346,108.5 C346,123.68654 333.687935,136 318.499102,136 C303.312065,136 291,123.68654 291,108.5 C291,93.3116629 303.312065,81 318.499102,81 C333.687935,81 346,93.3116629 346,108.5" id="Fill-176" fill="#D0D2D3" mask="url(#mask-2)"></path>
                <path d="M346,108.5 C346,123.68654 333.687935,136 318.499102,136 C303.312065,136 291,123.68654 291,108.5 C291,93.3116629 303.312065,81 318.499102,81 C333.687935,81 346,93.3116629 346,108.5 Z" id="Stroke-177" stroke="#231F20" stroke-width="4" mask="url(#mask-2)"></path>
                <path d="M73.8667873,116.463557 C76.4226864,113.866976 78,110.339243 78,106.444371 C78,98.4666228 71.4049481,92 63.2687595,92 C62.1183335,92 61.0040845,92.1418897 59.9296301,92.3848758 C59.6239351,92.4504998 59.3290932,92.53386 59.0306337,92.6118993 C58.9781772,92.6278619 58.9221029,92.6385036 58.8696464,92.6544662 C51.7228965,94.6019023 47,100.286358 47,100.286358 C47,100.286358 47.6873614,101.71235 48.7871397,103.840695 C48.6297701,104.686712 48.5339013,105.554013 48.5339013,106.444371 C48.5339013,112.94824 52.9185436,118.446465 58.9456179,120.257333 C60.6278446,122.192353 62.1581281,123.323924 63.2687595,122.917764 C65.386918,122.140918 67.8143891,120.697191 69.8131637,119.372296 C71.3325942,118.630922 72.7018905,117.648336 73.8667873,116.463557" id="Fill-178" fill="#939597" mask="url(#mask-2)"></path>
                <path d="M73.8667873,116.463557 C76.4226864,113.866976 78,110.339243 78,106.444371 C78,98.4666228 71.4049481,92 63.2687595,92 C62.1183335,92 61.0040845,92.1418897 59.9296301,92.3848758 C59.6239351,92.4504998 59.3290932,92.53386 59.0306337,92.6118993 C58.9781772,92.6278619 58.9221029,92.6385036 58.8696464,92.6544662 C51.7228965,94.6019023 47,100.286358 47,100.286358 C47,100.286358 47.6873614,101.71235 48.7871397,103.840695 C48.6297701,104.686712 48.5339013,105.554013 48.5339013,106.444371 C48.5339013,112.94824 52.9185436,118.446465 58.9456179,120.257333 C60.6278446,122.192353 62.1581281,123.323924 63.2687595,122.917764 C65.386918,122.140918 67.8143891,120.697191 69.8131637,119.372296 C71.3325942,118.630922 72.7018905,117.648336 73.8667873,116.463557 Z" id="Stroke-179" stroke="#231F20" stroke-width="3" mask="url(#mask-2)"></path>
                <path d="M74,108.5 C74,116.507489 67.5092695,123 59.5,123 C51.4925107,123 45,116.507489 45,108.5 C45,100.490731 51.4925107,94 59.5,94 C67.5092695,94 74,100.490731 74,108.5" id="Fill-180" fill="#E5E6E7" mask="url(#mask-2)"></path>
                <path d="M74,108.5 C74,116.507489 67.5092695,123 59.5,123 C51.4925107,123 45,116.507489 45,108.5 C45,100.490731 51.4925107,94 59.5,94 C67.5092695,94 74,100.490731 74,108.5 Z" id="Stroke-181" stroke="#231F20" stroke-width="3" mask="url(#mask-2)"></path>
                <path d="M73.8667873,76.4639309 C76.4226864,73.8657245 78,70.3399673 78,66.445318 C78,58.4680264 71.4049481,52 63.2687595,52 C62.1183335,52 61.0040845,52.1418816 59.9296301,52.3866273 C59.6239351,52.450474 59.3290932,52.535603 59.0306337,52.6136378 C58.9781772,52.6295995 58.9221029,52.6402406 58.8696464,52.6562023 C51.7228965,54.6035269 47,60.2876576 47,60.2876576 C47,60.2876576 47.6873614,61.7135674 48.7871397,63.8417911 C48.6297701,64.68776 48.5339013,65.5550111 48.5339013,66.445318 C48.5339013,72.9488148 52.9185436,78.4467259 58.9456179,80.2574895 C60.6278446,82.1923995 62.1581281,83.3239051 63.2687595,82.9177691 C65.386918,82.1409674 67.8143891,80.6973224 69.8131637,79.3725032 C71.3325942,78.6311719 72.7018905,77.648642 73.8667873,76.4639309" id="Fill-182" fill="#939597" mask="url(#mask-2)"></path>
                <path d="M73.8667873,76.4639309 C76.4226864,73.8657245 78,70.3399673 78,66.445318 C78,58.4680264 71.4049481,52 63.2687595,52 C62.1183335,52 61.0040845,52.1418816 59.9296301,52.3866273 C59.6239351,52.450474 59.3290932,52.535603 59.0306337,52.6136378 C58.9781772,52.6295995 58.9221029,52.6402406 58.8696464,52.6562023 C51.7228965,54.6035269 47,60.2876576 47,60.2876576 C47,60.2876576 47.6873614,61.7135674 48.7871397,63.8417911 C48.6297701,64.68776 48.5339013,65.5550111 48.5339013,66.445318 C48.5339013,72.9488148 52.9185436,78.4467259 58.9456179,80.2574895 C60.6278446,82.1923995 62.1581281,83.3239051 63.2687595,82.9177691 C65.386918,82.1409674 67.8143891,80.6973224 69.8131637,79.3725032 C71.3325942,78.6311719 72.7018905,77.648642 73.8667873,76.4639309 Z" id="Stroke-183" stroke="#231F20" stroke-width="3" mask="url(#mask-2)"></path>
                <path d="M74,68.5 C74,76.5092695 67.5092695,83 59.5,83 C51.4925107,83 45,76.5092695 45,68.5 C45,60.4925107 51.4925107,54 59.5,54 C67.5092695,54 74,60.4925107 74,68.5" id="Fill-184" fill="#E5E6E7" mask="url(#mask-2)"></path>
                <path d="M74,68.5 C74,76.5092695 67.5092695,83 59.5,83 C51.4925107,83 45,76.5092695 45,68.5 C45,60.4925107 51.4925107,54 59.5,54 C67.5092695,54 74,60.4925107 74,68.5 Z" id="Stroke-185" stroke="#231F20" stroke-width="3" mask="url(#mask-2)"></path>
                <path d="M73.8667873,156.463931 C76.4226864,153.865724 78,150.339967 78,146.447092 C78,138.4698 71.4049481,132 63.2687595,132 C62.1183335,132 61.0040845,132.141882 59.9296301,132.388401 C59.6239351,132.452248 59.3290932,132.535603 59.0306337,132.613638 C58.9781772,132.629599 58.9221029,132.640241 58.8696464,132.656202 C51.7228965,134.603527 47,140.287658 47,140.287658 C47,140.287658 47.6873614,141.715341 48.7871397,143.841791 C48.6297701,144.68776 48.5339013,145.556785 48.5339013,146.447092 C48.5339013,152.950588 52.9185436,158.446726 58.9456179,160.25749 C60.6278446,162.1924 62.1581281,163.323905 63.2687595,162.917769 C65.386918,162.139194 67.8143891,160.699096 69.8131637,159.372503 C71.3325942,158.632945 72.7018905,157.648642 73.8667873,156.463931" id="Fill-186" fill="#939597" mask="url(#mask-2)"></path>
                <path d="M73.8667873,156.463931 C76.4226864,153.865724 78,150.339967 78,146.447092 C78,138.4698 71.4049481,132 63.2687595,132 C62.1183335,132 61.0040845,132.141882 59.9296301,132.388401 C59.6239351,132.452248 59.3290932,132.535603 59.0306337,132.613638 C58.9781772,132.629599 58.9221029,132.640241 58.8696464,132.656202 C51.7228965,134.603527 47,140.287658 47,140.287658 C47,140.287658 47.6873614,141.715341 48.7871397,143.841791 C48.6297701,144.68776 48.5339013,145.556785 48.5339013,146.447092 C48.5339013,152.950588 52.9185436,158.446726 58.9456179,160.25749 C60.6278446,162.1924 62.1581281,163.323905 63.2687595,162.917769 C65.386918,162.139194 67.8143891,160.699096 69.8131637,159.372503 C71.3325942,158.632945 72.7018905,157.648642 73.8667873,156.463931 Z" id="Stroke-187" stroke="#231F20" stroke-width="3" mask="url(#mask-2)"></path>
                <path d="M74,148.5 C74,156.507489 67.5092695,163 59.5,163 C51.4925107,163 45,156.507489 45,148.5 C45,140.492511 51.4925107,134 59.5,134 C67.5092695,134 74,140.492511 74,148.5" id="Fill-188" fill="#E5E6E7" mask="url(#mask-2)"></path>
                <path d="M74,148.5 C74,156.507489 67.5092695,163 59.5,163 C51.4925107,163 45,156.507489 45,148.5 C45,140.492511 51.4925107,134 59.5,134 C67.5092695,134 74,140.492511 74,148.5 Z" id="Stroke-189" stroke="#231F20" stroke-width="3" mask="url(#mask-2)"></path>
            </g>
        </g>
    </g>
</svg>